<svg preserveAspectRatio="xMidYMid meet" id="comp-kcfbawhd1svgcontent" data-bbox="20 20 160 160" viewBox="20 20 160 160" height="200" width="200" xmlns="http://www.w3.org/2000/svg" data-type="color" role="img">
    <g>
        <path d="M75.2 87.9l-1.8 1.8c.2.2 13.4 13.8 20.3 25.3 6.9 11.4 8.8 19.6 8.8 19.7l2.4-.6c-.1-.3-2-8.6-9.1-20.4-6.9-11.8-20-25.1-20.6-25.8z" fill="#000010" data-color="1"></path>
        <path d="M132.9 67l-.1-1.4-1.4.2c-.8.2-19 3.5-27.8 14.1-5.4 6.4-7.6 9.8-8.6 11.5C83 81.5 69.1 79 68.4 78.9l-1.4-.3V80c-.1 1-1 26 6.3 38.6 7.4 13 17.9 14.2 21.8 14.2.8 0 1.3-.1 1.4-.1l-.3-2.5c-.2 0-12.5 1.4-20.7-12.9-6-10.4-6.1-30.3-6-35.8 4.4 1 18.1 5 28.2 15.6 11.8 12.6 9 26.3 8.9 26.5l2.4.6c.1-.2.4-2 .5-4.8 3.3-.4 10.6-2.5 17.1-13.3 8.1-13.8 6.4-38 6.3-39.1zm-8.7 38c-5.9 9.8-12.3 11.8-15.1 12.1-.2-3.5-1.2-8.1-3.7-12.9.6-1 2.2-3.4 6.2-9.2 5.8-8.3 14.2-17.2 14.3-17.4l-1.8-1.7c-.1.1-8.6 9.1-14.5 17.6-3 4.2-4.6 6.7-5.5 8.2-1.3-2.1-2.9-4.2-4.8-6.2-.8-.8-1.6-1.6-2.4-2.3.5-1 2.2-4 8.6-11.6 7-8.3 20.7-12 25-13 .3 5.4.6 25-6.3 36.4z" fill="#000010" data-color="1"></path>
        <path d="M100 180c-44.1 0-80-35.9-80-80s35.9-80 80-80 80 35.9 80 80-35.9 80-80 80zm0-157.5c-42.7 0-77.5 34.8-77.5 77.5s34.8 77.5 77.5 77.5 77.5-34.8 77.5-77.5-34.8-77.5-77.5-77.5z" fill="#b9a05c" data-color="2"></path>
    </g>
</svg>